<svg width="309" height="76" viewBox="0 0 309 76" fill="none" xmlns="http://www.w3.org/2000/svg">
<rect x="124" y="60" width="15" height="33" transform="rotate(90 124 60)" fill="#03CCF8"/>
<rect x="91" y="55" width="5" height="5" fill="#03CCF8"/>
<rect x="119" y="55" width="5" height="5" fill="#03CCF8"/>
<path d="M91 75H86V70H81V65H76V0H91V75Z" fill="#03CCF8"/>
<path d="M139 65H134V70H129V75H124V0H139V65Z" fill="#03CCF8"/>
<rect x="191" y="55" width="5" height="5" fill="#03CCF8"/>
<rect x="191" y="15" width="5" height="5" fill="#03CCF8"/>
<rect x="148" width="15" height="75" fill="#03CCF8"/>
<path d="M196 5H201V10H206V15H211V60H206V65H201V70H196V5Z" fill="#03CCF8"/>
<rect x="196" y="60" width="15" height="33" transform="rotate(90 196 60)" fill="#03CCF8"/>
<rect x="196" width="15" height="33" transform="rotate(90 196 0)" fill="#03CCF8"/>
<rect x="235" y="15" width="5" height="5" fill="#03CCF8"/>
<rect x="263" y="15" width="5" height="5" fill="#03CCF8"/>
<rect x="263" y="55" width="5" height="5" fill="#03CCF8"/>
<rect x="235" y="55" width="5" height="5" fill="#03CCF8"/>
<path d="M235 75H230V70H225V65H220V10H225V5H230V0H235V75Z" fill="#03CCF8"/>
<path d="M273 0V5H278V10H283V65H278V70H273V75H268V0H273Z" fill="#03CCF8"/>
<rect x="268" y="60" width="15" height="33" transform="rotate(90 268 60)" fill="#03CCF8"/>
<rect x="268" width="15" height="33" transform="rotate(90 268 0)" fill="#03CCF8"/>
<rect x="46" y="15" width="5" height="5" fill="#03CCF8"/>
<rect x="16" y="15" width="5" height="5" fill="#03CCF8"/>
<rect x="16" y="25" width="5" height="5" fill="#03CCF8"/>
<rect x="16" y="55" width="5" height="5" fill="#03CCF8"/>
<rect x="46" y="45" width="5" height="5" fill="#03CCF8"/>
<rect x="46" y="55" width="5" height="5" fill="#03CCF8"/>
<path d="M57 0V5H62V10H67V15H0V10H5V5H10V0H57Z" fill="#03CCF8"/>
<path d="M57 75V70H62V65H67V60H0V65H5V70H10V75H57Z" fill="#03CCF8"/>
<path d="M57 30V35H62V40H67V45H10V40H5V35H0V30H57Z" fill="#03CCF8"/>
<rect y="15" width="16" height="15" fill="#03CCF8"/>
<rect x="51" y="45" width="16" height="15" fill="#03CCF8"/>
<rect x="51" y="15" width="16" height="10" fill="#03CCF8"/>
<rect y="50" width="16" height="10" fill="#03CCF8"/>
<rect x="296.145" y="62.0868" width="3.5" height="12" transform="rotate(-20 296.145 62.0868)" fill="#03CCF8"/>
<path d="M305.784 64.0301L299.35 64.4691L300.176 66.7385L299.236 67.0805L298.41 64.8111L293.198 68.611L293.293 49.2903L305.784 64.0301Z" fill="#03CCF8"/>
</svg>
